<svg width="52" height="52" viewBox="0 0 52 52" fill="none" xmlns="http://www.w3.org/2000/svg">
<g id="Group">
<g id="Group_2">
<path id="Vector" d="M25.7323 51.5575C39.8555 51.5575 51.3045 40.1084 51.3045 25.9853C51.3045 11.8622 39.8555 0.413086 25.7323 0.413086C11.6092 0.413086 0.160156 11.8622 0.160156 25.9853C0.160156 40.1084 11.6092 51.5575 25.7323 51.5575Z" fill="white"/>
</g>
<g id="Group_3">
<path id="Vector_2" d="M19.5811 33.444H18.9426L17.9345 32.0999C17.9009 32.0326 17.8673 31.999 17.8673 31.999V33.444H17.3633V30.5205H17.8673V31.8982C17.8673 31.8646 17.9009 31.831 17.9345 31.7974L18.909 30.5205H19.4803L18.3378 31.9318L19.5811 33.444Z" fill="#666666"/>
<path id="Vector_3" d="M22.3336 33.444H21.796L21.5271 32.7047H20.3846L20.1158 33.444H19.5781L20.687 30.5205H21.2247L22.3336 33.444ZM21.3927 32.3015L20.9895 31.1254C20.9895 31.0918 20.9559 31.0246 20.9559 30.9573C20.9559 31.0246 20.9223 31.0918 20.9223 31.1254L20.519 32.3015H21.3927Z" fill="#666666"/>
<path id="Vector_4" d="M23.2086 32.3687V33.444H22.7382V30.5205H23.6455C23.9815 30.5205 24.2503 30.5877 24.4183 30.7557C24.62 30.9237 24.6872 31.1254 24.6872 31.4278C24.6872 31.7302 24.5863 31.9318 24.3847 32.1335C24.1831 32.3015 23.9143 32.4023 23.6119 32.4023H23.2086V32.3687ZM23.2086 30.8901V31.9654H23.511C23.7127 31.9654 23.8807 31.9318 23.9815 31.831C24.0823 31.7302 24.1495 31.5958 24.1495 31.4278C24.1495 31.0917 23.9479 30.9237 23.5446 30.9237H23.2086V30.8901Z" fill="#666666"/>
<path id="Vector_5" d="M25.1914 33.444V30.5205H25.6619V31.6966H26.1659C26.4683 31.6966 26.7036 31.7638 26.9052 31.8982C27.0732 32.0327 27.174 32.2343 27.174 32.5031C27.174 32.7719 27.0732 33.0071 26.9052 33.1752C26.7372 33.3432 26.4683 33.4104 26.1659 33.4104H25.1914V33.444ZM25.6619 32.0663V33.0408H26.0987C26.2667 33.0408 26.4011 33.0072 26.5019 32.9063C26.6028 32.8055 26.6363 32.7047 26.6363 32.5367C26.6363 32.2343 26.4347 32.0663 26.0651 32.0663H25.6619Z" fill="#666666"/>
<path id="Vector_6" d="M29.3262 33.444H27.6797V30.5205H29.259V30.9237H28.1501V31.7638H29.1582V32.1671H28.1501V33.0408H29.3262V33.444Z" fill="#666666"/>
<path id="Vector_7" d="M30.3337 32.3687V33.444H29.8633V30.5205H30.7706C31.1066 30.5205 31.3754 30.5877 31.5435 30.7557C31.7451 30.9237 31.8123 31.1254 31.8123 31.4278C31.8123 31.7302 31.7115 31.9318 31.5098 32.1335C31.3082 32.3015 31.0394 32.4023 30.737 32.4023H30.3337V32.3687ZM30.3337 30.8901V31.9654H30.6362C30.8378 31.9654 31.0058 31.9318 31.1066 31.831C31.2074 31.7302 31.2746 31.5958 31.2746 31.4278C31.2746 31.0917 31.073 30.9237 30.6698 30.9237H30.3337V30.8901Z" fill="#666666"/>
<path id="Vector_8" d="M34.4352 33.444H33.8975L33.6287 32.7047H32.4862L32.2174 33.444H31.6797L32.7886 30.5205H33.3263L34.4352 33.444ZM33.4943 32.3015L33.091 31.1254C33.091 31.0918 33.0574 31.0246 33.0574 30.9573C33.0574 31.0246 33.0238 31.0918 33.0238 31.1254L32.6206 32.3015H33.4943Z" fill="#666666"/>
</g>
<g id="Group_4">
<g id="Group_5">
<path id="Vector_9" d="M38.8358 24.1047L38.0294 25.3817H36.5844V21.1812H34.8034V25.3817L32.8208 21.1812H32.0143L31.9135 21.3829L30.0318 25.3817L29.5949 25.6841C29.9981 25.2137 30.2334 24.5416 30.267 23.7351C30.2334 22.1894 29.6285 21.3829 28.7884 21.1812H28.0155H23.1767L24.4536 21.9877V23.9031L22.5046 21.1476H20.7908V25.3481L20.3876 25.6169V24.0711L19.5811 25.3481H17.6657V24.0711H18.5394L19.1442 25.012V22.4246L18.5394 23.2983H17.6657V22.0213H19.5811L20.3876 23.3319V21.2149H15.8847V23.2983H15.4479H11.1466L12.894 24.3736C12.5916 24.7096 12.2219 24.8776 11.8187 24.8776C11.2811 24.8776 10.8106 24.5416 10.4746 24.0039C10.441 23.8359 10.441 23.6343 10.4074 23.4663C10.4074 23.3655 10.4074 23.2311 10.4074 23.1303C10.4074 23.0294 10.4074 22.895 10.3738 22.7942C10.3738 22.5254 10.3738 22.2566 10.3738 21.9877C10.7434 22.3238 11.1466 22.6262 11.5499 22.9622C11.6507 23.0294 11.7179 23.0966 11.8187 23.1638L11.8523 22.895C11.8523 22.8278 11.8523 22.7606 11.8523 22.6934C11.8523 22.6262 11.8523 22.559 11.8523 22.4918C11.8523 22.4582 11.8523 22.4246 11.8859 22.391H13.3981L12.8268 22.6598L13.5997 22.559L13.8013 22.9622L14.1373 22.4918L14.7758 22.391L14.3053 22.223L14.6414 21.7525L13.9021 22.1221L13.2301 21.9205L13.4317 22.3238L11.8859 22.223C11.8859 22.1557 11.8859 22.0885 11.9195 22.0549V21.9205L11.8523 21.8533C11.7851 21.7861 11.6843 21.7525 11.6171 21.7189C11.5163 21.6517 11.4491 21.6181 11.3483 21.5509C11.281 21.5173 11.2138 21.4837 11.1802 21.4501C11.113 21.4165 11.0794 21.3493 11.0122 21.2821C10.8778 21.1477 10.777 20.9796 10.6762 20.8116C10.609 20.6772 10.5082 20.5428 10.4746 20.3748C10.4746 20.3748 10.4746 20.3748 10.4746 20.3412C10.8106 19.8371 11.2811 19.5011 11.8187 19.5011C12.3564 19.5011 12.7596 19.8371 13.0956 20.3412C13.3645 20.778 13.4653 21.1812 13.4653 21.1812H14.5406V17.1152L13.3645 19.0642C12.6924 18.5266 11.8187 18.1905 10.8778 18.1905C10.5418 18.1905 10.2393 18.2241 9.90331 18.3249C9.8025 18.0225 9.70169 17.7201 9.56727 17.4177L9.29845 17.2833L9.09682 17.1824V17.4849L9.13043 18.0561C9.13043 18.2577 9.13043 18.4258 9.13043 18.6274C7.7527 19.2659 6.81179 20.6772 6.81179 22.2565C6.81179 22.9622 7.01342 23.6679 7.34946 24.2392C7.34946 24.3064 7.31584 24.34 7.31584 24.4072C7.28224 24.5752 7.21503 24.7432 7.14783 24.9112C7.08062 25.0792 7.01341 25.2473 6.9126 25.4153C6.81179 25.5833 6.74459 25.7513 6.64377 25.9529C6.61017 26.0537 6.57657 26.1882 6.54297 26.3226L6.81179 26.2554C6.879 26.2554 6.97981 26.2554 7.04702 26.2554C7.31585 26.2554 7.55107 26.289 7.7863 26.3226C7.88711 26.3226 7.98791 26.3562 8.05512 26.3562C8.35755 26.3898 8.65999 26.3226 8.96242 26.3226C8.99602 26.3226 9.02962 26.3226 9.06322 26.3226C9.13043 26.3226 9.16403 26.3562 9.23124 26.3562C9.26484 26.3562 9.29845 26.3562 9.29845 26.3562C9.60088 26.3898 9.90332 26.3898 10.2057 26.3562C10.4074 26.3226 10.5418 26.289 10.777 26.2554C11.9531 26.2554 13.0956 25.8185 13.8349 25.0456L15.3471 26.0201L15.7503 26.289H22.7398L21.4629 25.4825V23.5335L23.4119 26.289H25.1256V22.0885L25.5289 21.8197V26.1882H27.7803H28.5532H31.7119H32.048L31.7119 25.9865L30.771 25.3817L30.939 25.012H31.7119H32.4848L33.0561 26.1882H40.4824V24.1047H41.3561L41.961 25.012V22.4246L41.3225 23.2647H40.4824V21.9877H42.3642L43.1707 23.2647V21.1812H38.6678V24.1047H38.8358ZM9.33205 26.1546C8.96241 26.0537 8.42476 26.2218 8.05512 26.1546C7.8535 26.121 7.01342 26.0201 6.84541 26.0537C6.91261 25.8185 7.24864 25.2472 7.38305 24.8776C7.78629 23.6007 7.95432 21.8533 8.45837 20.61C8.65999 20.2404 8.65998 20.0387 9.06322 19.8371C8.99602 19.8371 8.76079 19.8371 8.65998 19.7363C8.69358 19.5683 9.02962 19.3331 9.33205 19.2322C9.33205 19.1986 9.33205 19.165 9.33205 19.1314C9.36565 18.5938 9.36565 18.1233 9.33205 17.7873C9.33205 17.5521 9.29845 17.4177 9.29845 17.3841H9.33205L9.46647 17.4513C9.53368 17.6193 10.0041 18.8962 10.0377 19.165C10.3402 19.2658 10.609 19.3667 10.7098 19.5347C10.6426 19.6691 10.2057 19.7363 10.0713 19.7699C10.0713 19.8035 10.0713 19.8707 10.0377 19.9043C10.1385 19.9715 10.273 20.0723 10.3738 20.3412C10.441 20.5764 10.8442 21.4165 11.4155 21.6517C11.5835 21.7525 11.8187 21.8869 11.8523 21.9205C11.8523 22.0549 11.8187 22.2902 11.7851 22.4246C11.7851 22.5254 11.7851 22.7606 11.7851 22.8278C11.6507 22.727 10.441 21.7861 10.2729 21.5173C10.3065 21.8533 10.273 22.8278 10.3066 23.063C10.3066 23.7015 10.3402 23.6343 10.3738 24.2728C10.3738 24.8776 10.441 25.7849 10.441 26.0201C10.3401 26.1545 9.76889 26.2554 9.33205 26.1546ZM15.4479 25.2473L15.0446 24.3736L15.4479 24.1047L15.8511 23.8359V26.0873L15.4479 25.2473ZM27.9483 25.2809C27.8811 25.3145 27.8475 25.3481 27.7803 25.3817H27.4779V22.0213H27.8139C27.8811 22.0549 27.9147 22.0549 27.9819 22.0885C28.4524 22.391 28.4524 23.1302 28.486 23.7351C28.3852 24.3736 28.4188 24.9784 27.9483 25.2809ZM31.8799 24.2055H31.5103L31.8799 23.4327L32.2496 24.2055H31.8799Z" fill="#666666"/>
</g>
<g id="Group_6">
<path id="Vector_10" d="M44.483 20.14C44.483 20.0728 44.483 20.0392 44.483 20.0056C44.483 19.972 44.4494 19.9384 44.4494 19.9384C44.4494 19.9384 44.4158 19.9048 44.3822 19.9048C44.4158 19.9048 44.4494 19.8712 44.483 19.8376C44.5166 19.804 44.5166 19.7704 44.5166 19.7032C44.5166 19.6696 44.5166 19.6024 44.483 19.6024C44.4494 19.5688 44.4158 19.5688 44.3822 19.5352C44.3485 19.5352 44.2813 19.5352 44.2141 19.5352H43.9453V20.2744H44.0461V19.972H44.2141H44.2478C44.2814 19.972 44.315 19.972 44.3486 19.972C44.3822 19.972 44.3822 20.0056 44.4158 20.0056C44.4158 20.0056 44.4158 20.0392 44.4158 20.0728C44.4158 20.1064 44.4158 20.1064 44.4158 20.14C44.4158 20.1736 44.4158 20.1736 44.4158 20.2072C44.4158 20.2408 44.4158 20.2408 44.4494 20.2744H44.5502L44.5166 20.2408C44.483 20.2072 44.483 20.1736 44.483 20.14ZM44.2813 19.8712H44.2478H44.0461V19.636H44.2478C44.315 19.636 44.3485 19.636 44.3822 19.6696C44.4158 19.6696 44.4158 19.7032 44.4158 19.7704C44.4158 19.8376 44.3822 19.8712 44.2813 19.8712Z" fill="#666666"/>
</g>
<g id="Group_7">
<path id="Vector_11" d="M44.7863 19.5655C44.7191 19.4647 44.6519 19.3975 44.5511 19.3303C44.4503 19.2631 44.3495 19.2295 44.2487 19.2295H44.215C44.0806 19.2295 43.9798 19.2631 43.879 19.3303C43.7782 19.3975 43.6774 19.4647 43.6438 19.5655C43.5766 19.6663 43.543 19.7671 43.543 19.9016C43.543 20.036 43.5766 20.1368 43.6438 20.2376C43.711 20.3384 43.7782 20.4392 43.879 20.4728C43.9798 20.54 44.0806 20.5736 44.215 20.5736H44.2487C44.3495 20.5736 44.4503 20.54 44.5511 20.4728C44.6519 20.4056 44.7191 20.3384 44.7863 20.2376C44.8535 20.1368 44.8871 20.036 44.8871 19.9016C44.8535 19.8007 44.8199 19.6663 44.7863 19.5655ZM44.7191 20.204C44.6519 20.3048 44.5847 20.372 44.5175 20.4392C44.4503 20.4728 44.3495 20.5064 44.2487 20.5064H44.215C44.1142 20.5064 44.0134 20.4728 43.9126 20.4392C43.8118 20.372 43.7446 20.3048 43.711 20.204C43.6438 20.1032 43.6438 20.0024 43.6438 19.9016C43.6438 19.8007 43.6774 19.7 43.711 19.5991C43.7782 19.4983 43.8454 19.4311 43.9126 19.3975C44.0134 19.3303 44.1142 19.3303 44.215 19.3303H44.2487C44.3495 19.3303 44.4167 19.3639 44.5175 19.3975C44.6183 19.4647 44.6855 19.5319 44.7191 19.5991C44.7863 19.7 44.7863 19.8007 44.7863 19.9016C44.7863 20.036 44.7527 20.1368 44.7191 20.204Z" fill="#666666"/>
</g>
</g>
</g>
</svg>
